<svg width="104" height="104" viewBox="0 0 104 104" fill="none" xmlns="http://www.w3.org/2000/svg">
<path fill-rule="evenodd" clip-rule="evenodd" d="M80.9649 27.625C78.3359 27.026 76.375 24.6739 76.375 21.8636V14.1818V6.45961C76.375 2.89222 73.4828 0 69.9154 0C68.879 0 67.8703 0.24929 66.9689 0.710938C66.2188 1.09411 65.5424 1.62615 64.985 2.28516L55.1565 13.8898C53.5038 15.8403 50.4962 15.8403 48.8435 13.8898L39.015 2.28516C37.787 0.835583 35.9843 0 34.0846 0C30.5172 0 27.625 2.89222 27.625 6.45961V23.0351C27.026 25.6642 24.6739 27.625 21.8636 27.625H14.1818H6.45961C2.89222 27.625 0 30.5172 0 34.0846C0 35.9843 0.835582 37.787 2.28516 39.015L13.8898 48.8435C15.8403 50.4962 15.8403 53.5038 13.8898 55.1565L2.28516 64.985C0.835582 66.213 0 68.0157 0 69.9154C0 73.4828 2.89222 76.375 6.45961 76.375H23.0351C25.6642 76.974 27.625 79.3261 27.625 82.1364V89.8182V97.5404C27.625 101.108 30.5172 104 34.0846 104C35.9843 104 37.787 103.164 39.015 101.715L48.8435 90.1102C50.4962 88.1597 53.5038 88.1597 55.1565 90.1102L64.985 101.715C65.7606 102.631 66.767 103.302 67.8818 103.671C68.5305 103.887 69.216 104 69.9154 104C73.4828 104 76.375 101.108 76.375 97.5404V80.9649C76.974 78.3359 79.3261 76.375 82.1364 76.375H89.8182H97.5404C101.108 76.375 104 73.4828 104 69.9154C104 69.1675 103.871 68.4347 103.626 67.7457C103.248 66.685 102.594 65.7294 101.715 64.985L90.1102 55.1565C88.1597 53.5038 88.1597 50.4962 90.1102 48.8435L101.715 39.015C103.164 37.787 104 35.9843 104 34.0846C104 30.5172 101.108 27.625 97.5404 27.625H80.9649Z" fill="#FF5C5C"/>
</svg>
